    <svg
                xmlns="http://www.w3.org/2000/svg"
                width="47.891"
                height="47.891"
                viewBox="0 0 47.891 47.891"
              >
                <path
                  id="Path_70"
                  data-name="Path 70"
                  d="M43.214,0H4.677A4.682,4.682,0,0,0,0,4.677V33.3a4.682,4.682,0,0,0,4.677,4.677H19.269v4.3h-.935a4.678,4.678,0,0,0-4.677,4.677.935.935,0,0,0,.935.935H33.3a.935.935,0,0,0,.935-.935,4.682,4.682,0,0,0-4.677-4.677h-.935v-4.3H43.214A4.682,4.682,0,0,0,47.891,33.3V4.677A4.682,4.682,0,0,0,43.214,0ZM4.677,1.871H43.214a2.809,2.809,0,0,1,2.806,2.806V28.623h-4.3V7.109a.935.935,0,0,0-.935-.935H33.3a.935.935,0,0,0-.935.935V28.623H27.682c-.01-.968-.035-1.921-.075-2.846a60.165,60.165,0,0,0-.731-7.484,4.677,4.677,0,0,0,1.277-6.1L24.911,6.576a.935.935,0,0,0-1.62,0l-3.243,5.616a4.676,4.676,0,0,0,1.029,5.9,59.377,59.377,0,0,0-.788,7.68c-.042.935-.069,1.889-.079,2.848H15.527V14.592a.93.93,0,0,0-.092-.4s0-.01-.006-.015L11.687,6.691a.936.936,0,0,0-1.673,0L6.272,14.174l-.006.015a.93.93,0,0,0-.093.4V28.623h-4.3V4.677A2.809,2.809,0,0,1,4.677,1.871ZM34.235,28.623V8.044h5.612V9.915h-.935a.935.935,0,0,0,0,1.871h.935v2.806h-.935a.935.935,0,0,0,0,1.871h.935v2.806h-.935a.935.935,0,0,0,0,1.871h.935v3.742h-.935a.935.935,0,0,0,0,1.871h.935v1.871ZM24.1,19.2a4.684,4.684,0,0,0,1.009-.112c.174,1.113.429,3.081.579,5.789H22.208c.158-2.706.425-4.705.61-5.856A4.683,4.683,0,0,0,24.1,19.2Zm0-1.871a2.81,2.81,0,0,1-2.433-4.206L24.1,8.915l2.432,4.212A2.808,2.808,0,0,1,24.1,17.333Zm-1.979,9.418h3.65c.02.615.033,1.24.04,1.871H22.08c.007-.627.021-1.252.042-1.871ZM11.786,28.623v-13.1h1.871v13.1Zm-3.742,0v-13.1H9.915v13.1Zm.578-14.966L10.85,9.2l2.228,4.456ZM32.2,46.021H15.686a2.812,2.812,0,0,1,2.647-1.871H29.558A2.811,2.811,0,0,1,32.2,46.021Zm-5.452-3.742H21.139v-4.3h5.612Zm16.463-6.173H4.677A2.809,2.809,0,0,1,1.871,33.3V30.493H46.02V33.3A2.809,2.809,0,0,1,43.214,36.106Zm0,0"
                  fill="currentColor"
                />
              </svg>