 <svg
                id="Page-1"
                xmlns="http://www.w3.org/2000/svg"
                width="55.219"
                height="55.279"
                viewBox="0 0 55.219 55.279"
              >
                <g
                  id="_035---Creative-Thinking"
                  data-name="035---Creative-Thinking"
                  transform="translate(0 0)"
                >
                  <path
                    id="Shape"
                    d="M47.7,40.538a12.381,12.381,0,0,0-.022-4.7l4.22-10.183a.15.15,0,0,0,0-.02,17.3,17.3,0,0,1,2.962-5.143,1.374,1.374,0,0,0,.34-1.258l-1.73-7.472a.9.9,0,0,0-.092-.223c-.007-.014-.01-.03-.018-.043s-.04-.044-.058-.068a.929.929,0,0,0-.13-.152.856.856,0,0,0-.1-.061.939.939,0,0,0-.143-.087.91.91,0,0,0-.216-.053c-.021,0-.04-.014-.061-.016a.921.921,0,0,0-.508.113c-.014.007-.03.01-.044.018h-.009l-6.505,4.06a1.375,1.375,0,0,0-.65,1.133,17.294,17.294,0,0,1-1.549,5.743v.01l-2.109,5.1a12.359,12.359,0,0,0-3.291-1.188,49.777,49.777,0,0,0,.477-9.059,10.055,10.055,0,0,0,2.287-7.382C40.17,4.238,35.318.36,35.11.2a.921.921,0,0,0-1.46.961c.474,1.782.064,3.662-3.441,7.529a5.392,5.392,0,0,0-1.263,5.875,7.152,7.152,0,0,0,1.312,2.119c-.223,1.423-.4,2.771-.519,4.084a46.139,46.139,0,0,0-.16,6.534,12.536,12.536,0,0,0-2.294,1.6L22.816,9.79c0-.019-.018-.033-.024-.051a.871.871,0,0,0-.064-.178L18.164,1.132a2.127,2.127,0,0,0-4,.936l-.346,9.577a.952.952,0,0,0,.023.205v.041L18.4,31.348a10.375,10.375,0,0,0-2.13.318L11.258,19.555a1.862,1.862,0,0,0-2.4-.985L1.189,21.743a1.848,1.848,0,0,0-1,2.407l6.8,16.407a7.366,7.366,0,0,0,.38,14.722H47.909A7.371,7.371,0,1,0,47.7,40.538ZM46.757,16.69l3.862-2.41-1.367,3.3a.922.922,0,1,0,1.7.706l1.367-3.3,1.024,4.434a18.222,18.222,0,0,0-2.672,4.41,3.789,3.789,0,0,1-5.15-2.13A18.2,18.2,0,0,0,46.757,16.69Zm-2.119,7.233a5.612,5.612,0,0,0,2.3,1.672,5.847,5.847,0,0,0,2.254.475,4.875,4.875,0,0,0,.558-.034l-2.94,7.094a12.5,12.5,0,0,0-3.956-4.891Zm-12.622-6.58,4.629.283c.029.861.018,1.75-.01,2.654a19.367,19.367,0,0,1-4.616-.223c-.116-.017-.229-.029-.345-.045.092-.868.2-1.747.34-2.669Zm-.439-7.419c2.446-2.7,3.714-4.774,4.009-6.726A12.322,12.322,0,0,1,38.91,9.8a8.255,8.255,0,0,1-1.865,6q-2.73-.166-5.4-.332a3.843,3.843,0,0,1-.071-5.546Zm-.07,11.925.267.035a26.244,26.244,0,0,0,3.587.3c.381,0,.783-.03,1.186-.062-.084,1.186-.221,2.424-.4,3.7-.228-.012-.451-.034-.679-.034a12.339,12.339,0,0,0-4.083.7,44.458,44.458,0,0,1,.116-4.651ZM24.38,32.623,21.744,21.395a.921.921,0,0,0-1.794.42l2.369,10.106a10.435,10.435,0,0,0-2.008-.5L16.267,14.164a4.366,4.366,0,0,0,1.8.392c.058,0,.12-.008.179-.011l.651,2.781a.921.921,0,1,0,1.794-.42l-.652-2.783a4.363,4.363,0,0,0,1.61-1.225l4.111,17.578A12.361,12.361,0,0,0,24.38,32.623ZM18.751,12.63A3.059,3.059,0,0,1,15.674,11.4l.117-3.245a5.422,5.422,0,0,0,.972.092,4.105,4.105,0,0,0,.936-.1,4.693,4.693,0,0,0,1.708-.849l1.551,2.863a3.056,3.056,0,0,1-2.208,2.476ZM16.227,1.867a.287.287,0,0,1,.317.142l1.975,3.653a3.144,3.144,0,0,1-1.244.691,3.132,3.132,0,0,1-1.42-.067l.15-4.151A.286.286,0,0,1,16.227,1.867ZM9.56,20.269l.7,1.7L6.855,23.381a.921.921,0,0,0,.355,1.771.935.935,0,0,0,.353-.07l3.409-1.412.7,1.7-1.705.707a.921.921,0,0,0,.354,1.773.937.937,0,0,0,.352-.07l1.705-.707.7,1.7L9.675,30.191a.921.921,0,0,0,.354,1.773.933.933,0,0,0,.352-.07l3.409-1.411.745,1.8a10.7,10.7,0,0,0-5.965,7.261l-6.678-16.1Zm38.35,33.167H7.371a5.528,5.528,0,1,1,0-11.056,5.427,5.427,0,0,1,1.576.228.921.921,0,0,0,1.188-.865,8.752,8.752,0,0,1,14-6.826.921.921,0,0,0,1.412-.415,10.6,10.6,0,0,1,20.05,6.84.921.921,0,0,0,1.078,1.172,5.752,5.752,0,0,1,1.23-.135,5.528,5.528,0,0,1,0,11.056Z"
                    transform="translate(-0.012 0)"
                    fill="currentColor"
                  />
                  <path
                    id="Shape-2"
                    data-name="Shape"
                    d="M38.607,15.145a.921.921,0,0,0,.737-.364,6.91,6.91,0,0,0,1.225-5.425.921.921,0,1,0-1.78.474,5.118,5.118,0,0,1-.914,3.838.921.921,0,0,0,.737,1.474Z"
                    transform="translate(-2.977 -0.68)"
                    fill="currentColor"
                  />
                  <path
                    id="Shape-3"
                    data-name="Shape"
                    d="M36.348,45.846a4.529,4.529,0,0,0-1.976.461,5.528,5.528,0,0,0-9.549,5.427.921.921,0,0,0,.848.56.911.911,0,0,0,.361-.074.921.921,0,0,0,.486-1.209,3.753,3.753,0,0,1-.3-1.48A3.685,3.685,0,0,1,29.9,45.846a3.648,3.648,0,0,1,3.331,2.119,1,1,0,0,0,.064.087.936.936,0,0,0,.049.092c.017.02.041.029.059.049a1.294,1.294,0,0,0,.29.212.917.917,0,0,0,.166.052.847.847,0,0,0,.173.027,1.132,1.132,0,0,0,.352-.059.7.7,0,0,0,.073-.018.835.835,0,0,0,.086-.064.957.957,0,0,0,.1-.05,2.717,2.717,0,0,1,1.71-.6A2.764,2.764,0,0,1,38.854,49.3a.921.921,0,1,0,1.677-.765A4.607,4.607,0,0,0,36.348,45.846Z"
                    transform="translate(-1.93 -3.465)"
                    fill="currentColor"
                  />
                  <path
                    id="Shape-4"
                    data-name="Shape"
                    d="M17.394,39.047A5,5,0,0,0,14,43.606a.921.921,0,1,0,1.843,0,3.167,3.167,0,0,1,2.139-2.813.923.923,0,0,0-.588-1.75Z"
                    transform="translate(-1.113 -3.068)"
                    fill="currentColor"
                  />
                  <path
                    id="Shape-5"
                    data-name="Shape"
                    d="M31.7,37.5a.9.9,0,0,0,.224.028.921.921,0,0,0,.893-.7,3.93,3.93,0,0,1,3.718-2.988.921.921,0,0,0,0-1.843,5.739,5.739,0,0,0-5.5,4.383A.921.921,0,0,0,31.7,37.5Z"
                    transform="translate(-2.45 -2.518)"
                    fill="currentColor"
                  />
                </g>
              </svg>