   <svg
                id="_1237114"
                data-name="1237114"
                xmlns="http://www.w3.org/2000/svg"
                width="50.202"
                height="50.202"
                viewBox="0 0 50.202 50.202"
              >
                <path
                  id="Path_107"
                  data-name="Path 107"
                  d="M3.348,112.778h12.87l-.837,1.673h-.319c-2.62,0-4.184,1.251-4.184,3.347a1.673,1.673,0,0,0,1.673,1.673h25.1a1.673,1.673,0,0,0,1.673-1.673c0-2.1-1.564-3.347-4.184-3.347h-.319l-.837-1.673h12.87a3.347,3.347,0,0,0,3.347-3.347V80.147A3.347,3.347,0,0,0,46.856,76.8h-9.2a.837.837,0,1,0,0,1.673h9.2a1.673,1.673,0,0,1,1.673,1.673v29.284a1.673,1.673,0,0,1-1.673,1.673H3.348a1.673,1.673,0,0,1-1.673-1.673V80.147a1.673,1.673,0,0,1,1.673-1.673h9.2a.837.837,0,1,0,0-1.673h-9.2A3.347,3.347,0,0,0,0,80.147v29.284a3.347,3.347,0,0,0,3.347,3.347Zm34.3,5.02h-25.1c0-.414,0-1.673,2.51-1.673h20.08c2.51,0,2.51,1.259,2.51,1.673Zm-5.538-5.02.836,1.673h-15.7l.836-1.673Zm0,0"
                  transform="translate(-0.001 -69.27)"
                  fill="currentColor"
                />
                <path
                  id="Path_108"
                  data-name="Path 108"
                  d="M75.131,135.2H36.644a.837.837,0,0,1-.837-.836V113.443a.837.837,0,0,1,.837-.837h2.51a.837.837,0,1,0,0-1.673h-2.51a2.51,2.51,0,0,0-2.51,2.51v20.917a2.51,2.51,0,0,0,2.51,2.51H75.131a2.51,2.51,0,0,0,2.51-2.51V113.443a2.51,2.51,0,0,0-2.51-2.51h-2.51a.837.837,0,1,0,0,1.673h2.51a.837.837,0,0,1,.837.837v20.917A.837.837,0,0,1,75.131,135.2Zm0,0"
                  transform="translate(-30.787 -100.056)"
                  fill="currentColor"
                />
                <path
                  id="Path_109"
                  data-name="Path 109"
                  d="M205.637,392.535a.837.837,0,0,0,0,1.673H214a.837.837,0,0,0,0-1.673Zm0,0"
                  transform="translate(-184.72 -354.047)"
                  fill="currentColor"
                />
                <path
                  id="Path_110"
                  data-name="Path 110"
                  d="M135.914,4.864l-1.4-1.4a1.673,1.673,0,0,0-2.114-.2l-2.092,1.381a10.325,10.325,0,0,0-2.036-.83l-.493-2.467A1.673,1.673,0,0,0,126.145,0H124.17a1.673,1.673,0,0,0-1.641,1.345l-.506,2.463a10.325,10.325,0,0,0-2.029.845l-2.083-1.39a1.673,1.673,0,0,0-2.113.207l-1.4,1.4a1.679,1.679,0,0,0-.2,2.11l1.382,2.092a10.414,10.414,0,0,0-.83,2.036l-2.467.492a1.68,1.68,0,0,0-1.349,1.64v1.976a1.678,1.678,0,0,0,1.346,1.641l2.462.5a10.432,10.432,0,0,0,.844,2.029L114.2,21.471a1.679,1.679,0,0,0,.208,2.114l1.4,1.4a1.673,1.673,0,0,0,2.113.208l2.092-1.381a10.348,10.348,0,0,0,2.036.83l.493,2.467a1.674,1.674,0,0,0,1.636,1.344h1.975a1.673,1.673,0,0,0,1.641-1.344l.506-2.464a10.3,10.3,0,0,0,2.029-.845l2.083,1.393a1.673,1.673,0,0,0,2.115-.208l1.4-1.4a1.68,1.68,0,0,0,.207-2.114l-1.382-2.092a10.827,10.827,0,0,0,.837-2.022l-.8-.238.8.225,2.467-.492a1.679,1.679,0,0,0,1.341-1.64V13.236a1.678,1.678,0,0,0-1.346-1.641l-2.462-.5a10.425,10.425,0,0,0-.844-2.029l1.393-2.084a1.672,1.672,0,0,0-.208-2.116Zm-2.577,3.268a1.68,1.68,0,0,0-.072,1.726,9.093,9.093,0,0,1,.7,1.709,1.673,1.673,0,0,0,1.273,1.176l2.465.493v1.976l-2.465.493a1.673,1.673,0,0,0-1.273,1.176,9.125,9.125,0,0,1-.7,1.709,1.674,1.674,0,0,0,.073,1.726l1.393,2.084-1.4,1.4L131.25,22.4a1.681,1.681,0,0,0-1.727-.074,9.1,9.1,0,0,1-1.709.705,1.676,1.676,0,0,0-1.171,1.272l-.5,2.466H124.17l-.494-2.467a1.679,1.679,0,0,0-1.177-1.273,9.083,9.083,0,0,1-1.708-.7,1.71,1.71,0,0,0-.809-.2,1.649,1.649,0,0,0-.92.278L116.978,23.8l-1.4-1.4,1.394-2.085a1.679,1.679,0,0,0,.072-1.726,9.094,9.094,0,0,1-.7-1.709,1.673,1.673,0,0,0-1.273-1.176l-2.462-.493V13.236l2.465-.493a1.673,1.673,0,0,0,1.273-1.176,9.138,9.138,0,0,1,.7-1.709,1.673,1.673,0,0,0-.073-1.726l-1.393-2.084,1.4-1.4,2.084,1.393a1.674,1.674,0,0,0,1.727.074,9.077,9.077,0,0,1,1.709-.705,1.677,1.677,0,0,0,1.175-1.273l.494-2.466h1.975l.494,2.467a1.679,1.679,0,0,0,1.177,1.273,9.083,9.083,0,0,1,1.708.7,1.673,1.673,0,0,0,1.727-.073l2.084-1.393,1.4,1.4Zm0,0"
                  transform="translate(-100.056 0)"
                  fill="currentColor"
                />
                <path
                  id="Path_111"
                  data-name="Path 111"
                  d="M194.428,76.8a6.693,6.693,0,1,0,6.693,6.693A6.693,6.693,0,0,0,194.428,76.8Zm0,11.714a5.02,5.02,0,1,1,5.02-5.02A5.02,5.02,0,0,1,194.428,88.514Zm0,0"
                  transform="translate(-169.327 -69.27)"
                  fill="currentColor"
                />
                <path
                  id="Path_112"
                  data-name="Path 112"
                  d="M249.138,137.371a.837.837,0,1,1-.837-.836A.837.837,0,0,1,249.138,137.371Zm0,0"
                  transform="translate(-223.201 -123.147)"
                  fill="currentColor"
                />
              </svg>