   <svg
                xmlns="http://www.w3.org/2000/svg"
                width="109"
                height="108"
                viewBox="0 0 109 108"
              >
                <g
                  id="Group_171"
                  data-name="Group 171"
                  transform="translate(22.398 25.398)"
                >
                  <g
                    id="Group_170"
                    data-name="Group 170"
                    transform="translate(0)"
                  >
                    <path
                      id="Path_84"
                      data-name="Path 84"
                      d="M49.9,0H4.047A4.046,4.046,0,0,0,0,4.046V36.415a4.046,4.046,0,0,0,4.046,4.046H21.58v-2.7H4.047A1.349,1.349,0,0,1,2.7,36.415V4.046A1.349,1.349,0,0,1,4.047,2.7H49.9a1.349,1.349,0,0,1,1.349,1.349V28.322h2.7V4.046A4.046,4.046,0,0,0,49.9,0Z"
                      transform="translate(-0.001)"
                      fill="currentColor"
                    />
                  </g>
                </g>
                <g
                  id="Group_173"
                  data-name="Group 173"
                  transform="translate(38.583 64.51)"
                >
                  <g id="Group_172" data-name="Group 172">
                    <rect
                      id="Rectangle_117"
                      data-name="Rectangle 117"
                      width="2.697"
                      height="8.092"
                      fill="currentColor"
                    />
                  </g>
                </g>
                <g
                  id="Group_175"
                  data-name="Group 175"
                  transform="translate(27.793 53.721)"
                >
                  <g id="Group_174" data-name="Group 174">
                    <path
                      id="Path_85"
                      data-name="Path 85"
                      d="M46.714,228.046a1.349,1.349,0,0,1-1.349-1.349V224h-2.7v2.7a4.046,4.046,0,0,0,4.046,4.046h2.7v-2.7Z"
                      transform="translate(-42.668 -224)"
                      fill="currentColor"
                    />
                  </g>
                </g>
                <g
                  id="Group_177"
                  data-name="Group 177"
                  transform="translate(27.793 48.326)"
                >
                  <g id="Group_176" data-name="Group 176">
                    <rect
                      id="Rectangle_118"
                      data-name="Rectangle 118"
                      width="2.697"
                      height="2.697"
                      fill="currentColor"
                    />
                  </g>
                </g>
                <g
                  id="Group_179"
                  data-name="Group 179"
                  transform="translate(46.673 49.673)"
                >
                  <g id="Group_178" data-name="Group 178">
                    <path
                      id="Path_86"
                      data-name="Path 86"
                      d="M217,196.282A14.653,14.653,0,1,0,217,217,14.653,14.653,0,0,0,217,196.282ZM206.632,218.6a11.956,11.956,0,1,1,11.96-11.952A11.956,11.956,0,0,1,206.632,218.6Z"
                      transform="translate(-191.986 -191.989)"
                      fill="currentColor"
                    />
                  </g>
                </g>
                <g
                  id="Group_181"
                  data-name="Group 181"
                  transform="translate(72.21 75.208)"
                >
                  <g id="Group_180" data-name="Group 180">
                    <path
                      id="Path_87"
                      data-name="Path 87"
                      d="M408.486,402.8l-8.466-8.463a1.348,1.348,0,0,0-1.907,0l-3.763,3.763a1.349,1.349,0,0,0,0,1.907l8.466,8.467a1.348,1.348,0,0,0,.953.4h0a1.348,1.348,0,0,0,.953-.4l3.763-3.763A1.349,1.349,0,0,0,408.486,402.8Zm-4.716,2.813-6.559-6.56,1.856-1.856,6.559,6.56Z"
                      transform="translate(-393.956 -393.942)"
                      fill="currentColor"
                    />
                  </g>
                </g>
                <g
                  id="Group_183"
                  data-name="Group 183"
                  transform="translate(69.782 72.781)"
                >
                  <g
                    id="Group_182"
                    data-name="Group 182"
                    transform="translate(0 0)"
                  >
                    <rect
                      id="Rectangle_119"
                      data-name="Rectangle 119"
                      width="2.697"
                      height="6.652"
                      transform="translate(0 1.907) rotate(-45)"
                      fill="currentColor"
                    />
                  </g>
                </g>
                <g
                  id="Group_185"
                  data-name="Group 185"
                  transform="translate(61.51 55.07)"
                >
                  <g id="Group_184" data-name="Group 184">
                    <path
                      id="Path_88"
                      data-name="Path 88"
                      d="M309.334,234.667v2.7a6.752,6.752,0,0,1,6.743,6.743h2.7A9.451,9.451,0,0,0,309.334,234.667Z"
                      transform="translate(-309.334 -234.667)"
                      fill="currentColor"
                    />
                  </g>
                </g>
                <g
                  id="Group_187"
                  data-name="Group 187"
                  transform="translate(35.885 71.254)"
                >
                  <g id="Group_186" data-name="Group 186">
                    <rect
                      id="Rectangle_120"
                      data-name="Rectangle 120"
                      width="10.789"
                      height="2.697"
                      fill="currentColor"
                    />
                  </g>
                </g>
                <g
                  id="Group_189"
                  data-name="Group 189"
                  transform="translate(38.583 30.793)"
                >
                  <g id="Group_188" data-name="Group 188">
                    <path
                      id="Path_89"
                      data-name="Path 89"
                      d="M132.047,42.667a4.046,4.046,0,1,0,4.046,4.046A4.046,4.046,0,0,0,132.047,42.667Zm0,5.395a1.349,1.349,0,1,1,1.349-1.349A1.349,1.349,0,0,1,132.047,48.062Z"
                      transform="translate(-128.001 -42.667)"
                      fill="currentColor"
                    />
                  </g>
                </g>
                <g
                  id="Group_191"
                  data-name="Group 191"
                  transform="translate(48.024 40.234)"
                >
                  <g id="Group_190" data-name="Group 190">
                    <path
                      id="Path_90"
                      data-name="Path 90"
                      d="M206.714,117.333a4.046,4.046,0,1,0,4.046,4.046A4.046,4.046,0,0,0,206.714,117.333Zm0,5.395a1.349,1.349,0,1,1,1.349-1.349A1.349,1.349,0,0,1,206.714,122.728Z"
                      transform="translate(-202.668 -117.333)"
                      fill="currentColor"
                    />
                  </g>
                </g>
                <g
                  id="Group_193"
                  data-name="Group 193"
                  transform="translate(33.583 35.235)"
                >
                  <g
                    id="Group_192"
                    data-name="Group 192"
                    transform="translate(0 0)"
                  >
                    <rect
                      id="Rectangle_121"
                      data-name="Rectangle 121"
                      width="9.537"
                      height="2.697"
                      transform="translate(0 6.743) rotate(-45)"
                      fill="currentColor"
                    />
                  </g>
                </g>
                <g
                  id="Group_195"
                  data-name="Group 195"
                  transform="translate(43.018 35.238)"
                >
                  <g
                    id="Group_194"
                    data-name="Group 194"
                    transform="translate(0 0)"
                  >
                    <rect
                      id="Rectangle_122"
                      data-name="Rectangle 122"
                      width="2.697"
                      height="9.537"
                      transform="translate(0 1.907) rotate(-45)"
                      fill="currentColor"
                    />
                  </g>
                </g>
                <g
                  id="Group_197"
                  data-name="Group 197"
                  transform="translate(57.464 30.793)"
                >
                  <g id="Group_196" data-name="Group 196">
                    <path
                      id="Path_91"
                      data-name="Path 91"
                      d="M281.38,42.667a4.046,4.046,0,1,0,4.046,4.046A4.046,4.046,0,0,0,281.38,42.667Zm0,5.395a1.349,1.349,0,1,1,1.349-1.349A1.349,1.349,0,0,1,281.38,48.062Z"
                      transform="translate(-277.334 -42.667)"
                      fill="currentColor"
                    />
                  </g>
                </g>
                <g
                  id="Group_199"
                  data-name="Group 199"
                  transform="translate(52.464 35.24)"
                >
                  <g
                    id="Group_198"
                    data-name="Group 198"
                    transform="translate(0 0)"
                  >
                    <rect
                      id="Rectangle_123"
                      data-name="Rectangle 123"
                      width="9.537"
                      height="2.697"
                      transform="translate(0 6.743) rotate(-45)"
                      fill="currentColor"
                    />
                  </g>
                </g>
              </svg>