    <svg
                xmlns="http://www.w3.org/2000/svg"
                width="66.339"
                height="66.351"
                viewBox="0 0 66.339 66.351"
              >
                <g id="probl" transform="translate(-0.038 0.011)">
                  <path
                    id="Path_92"
                    data-name="Path 92"
                    d="M110.685,89.446a1.106,1.106,0,0,0,1.106,1.106h8.845a1.106,1.106,0,0,0,1.106-1.106V80.6a5.528,5.528,0,0,0-4.1-5.319,6.634,6.634,0,1,0-9.481,0,5.528,5.528,0,0,0-4.1,5.319v3.8a1.106,1.106,0,1,0,2.211,0V80.6a3.317,3.317,0,0,1,3.317-3.317h6.634A3.317,3.317,0,0,1,119.53,80.6v7.739H111.79a1.106,1.106,0,0,0-1.106,1.106ZM112.9,66.228a4.422,4.422,0,1,1-4.422,4.422A4.422,4.422,0,0,1,112.9,66.228Zm0,0"
                    transform="translate(-89.638 -55.172)"
                    fill="currentColor"
                  />
                  <path
                    id="Path_93"
                    data-name="Path 93"
                    d="M171.368,186.281a1.106,1.106,0,1,0,0-2.211h-2.211a1.106,1.106,0,1,0,0,2.211Zm0,0"
                    transform="translate(-144.793 -158.64)"
                    fill="currentColor"
                  />
                  <path
                    id="Path_94"
                    data-name="Path 94"
                    d="M65.406,55.985,52.115,42.694a3.4,3.4,0,0,0-3.759-.628l-5.86-5.86A23.218,23.218,0,1,0,8.5,41.135a1.106,1.106,0,0,0,1.406-1.707A21.031,21.031,0,1,1,40,35.855c-.265.351-.535.7-.822,1.03-.024.03-.052.057-.077.086a20.96,20.96,0,0,1-2.077,2.077c-.035.03-.066.063-.1.093q-.5.424-1.017.811a20.876,20.876,0,0,1-12.647,4.273c-.35,0-.7-.018-1.045-.036a1.107,1.107,0,1,0-.121,2.211c.388.021.774.039,1.166.039a23.087,23.087,0,0,0,12.985-3.98l6.491,6.491a1.105,1.105,0,0,0,1.563,0l4.691-4.691a1.135,1.135,0,0,1,1.564,0l13.29,13.292a1.105,1.105,0,0,1,0,1.562L59.153,63.8a1.105,1.105,0,0,1-1.564,0l-8.71-8.71a1.106,1.106,0,0,0-1.563,1.563l8.71,8.71a3.317,3.317,0,0,0,4.691,0l4.69-4.69a3.316,3.316,0,0,0,0-4.691ZM41.157,37.991l5.485,5.485L43.516,46.6,38.03,41.117A23.414,23.414,0,0,0,41.157,37.991Zm0,0"
                    transform="translate(0 0)"
                    fill="currentColor"
                  />
                  <path
                    id="Path_95"
                    data-name="Path 95"
                    d="M161.157,150.181a1.106,1.106,0,0,0,0,2.211A18.735,18.735,0,0,0,179.338,128.9a1.106,1.106,0,0,0-2.142.553,16.521,16.521,0,0,1-16.04,20.73Zm0,0"
                    transform="translate(-137.898 -110.378)"
                    fill="currentColor"
                  />
                  <path
                    id="Path_96"
                    data-name="Path 96"
                    d="M59.934,34.373A18.783,18.783,0,0,0,38.287,64.785a1.106,1.106,0,1,0,1.477-1.645,16.573,16.573,0,0,1,19.1-26.832,1.106,1.106,0,0,0,1.071-1.935Zm0,0"
                    transform="translate(-27.582 -27.601)"
                    fill="currentColor"
                  />
                  <path
                    id="Path_97"
                    data-name="Path 97"
                    d="M65.156,424.07a1.106,1.106,0,1,0,0,2.211H71.79a1.106,1.106,0,1,0,0-2.211Zm0,0"
                    transform="translate(-55.166 -365.472)"
                    fill="currentColor"
                  />
                  <path
                    id="Path_98"
                    data-name="Path 98"
                    d="M51.692,255.525H39.53V241.152a1.105,1.105,0,0,0-2.065-.553l-8.527,14.926h-1.57a3.317,3.317,0,0,0-3.317,3.317V269.9a3.317,3.317,0,0,0,3.317,3.317H51.692a3.317,3.317,0,0,0,3.317-3.317v-2.211a1.106,1.106,0,1,0-2.211,0V269.9A1.106,1.106,0,0,1,51.692,271H27.368a1.106,1.106,0,0,1-1.106-1.106V258.842a1.106,1.106,0,0,1,1.106-1.106h2.211a1.106,1.106,0,0,0,.96-.553l6.779-11.868V256.63a1.106,1.106,0,0,0,1.106,1.106H51.692a1.106,1.106,0,0,1,1.106,1.106v2.211a1.106,1.106,0,0,0,2.211,0v-2.211A3.317,3.317,0,0,0,51.692,255.525Zm0,0"
                    transform="translate(-20.694 -206.877)"
                    fill="currentColor"
                  />
                  <path
                    id="Path_99"
                    data-name="Path 99"
                    d="M90,393.176A1.106,1.106,0,0,0,88.9,392.07H81.157a1.106,1.106,0,1,0,0,2.211H88.9A1.106,1.106,0,0,0,90,393.176Zm0,0"
                    transform="translate(-68.955 -337.894)"
                    fill="currentColor"
                  />
                  <path
                    id="Path_100"
                    data-name="Path 100"
                    d="M174.685,393.176a1.106,1.106,0,0,0-1.106-1.106h-4.423a1.106,1.106,0,1,0,0,2.211h4.423A1.106,1.106,0,0,0,174.685,393.176Zm0,0"
                    transform="translate(-144.793 -337.894)"
                    fill="currentColor"
                  />
                  <path
                    id="Path_101"
                    data-name="Path 101"
                    d="M145.157,426.281h4.422a1.106,1.106,0,0,0,0-2.211h-4.422a1.106,1.106,0,1,0,0,2.211Zm0,0"
                    transform="translate(-124.11 -365.472)"
                    fill="currentColor"
                  />
                  <path
                    id="Path_102"
                    data-name="Path 102"
                    d="M345.157,50.282h9.951a1.106,1.106,0,0,0,0-2.211h-9.951a1.106,1.106,0,0,0,0,2.211Zm0,0"
                    transform="translate(-296.469 -41.436)"
                    fill="currentColor"
                  />
                  <path
                    id="Path_103"
                    data-name="Path 103"
                    d="M345.157,90.281h9.951a1.106,1.106,0,0,0,0-2.211h-9.951a1.106,1.106,0,0,0,0,2.211Zm0,0"
                    transform="translate(-296.469 -75.908)"
                    fill="currentColor"
                  />
                  <path
                    id="Path_104"
                    data-name="Path 104"
                    d="M382.685,128.07h-5.528a1.106,1.106,0,1,0,0,2.211h5.528a1.106,1.106,0,0,0,0-2.211Zm0,0"
                    transform="translate(-324.047 -110.38)"
                    fill="currentColor"
                  />
                  <path
                    id="Path_105"
                    data-name="Path 105"
                    d="M382.685,168.07h-5.528a1.106,1.106,0,0,0,0,2.211h5.528a1.106,1.106,0,0,0,0-2.211Zm0,0"
                    transform="translate(-324.047 -144.851)"
                    fill="currentColor"
                  />
                  <path
                    id="Path_106"
                    data-name="Path 106"
                    d="M361.157,204.493a1.106,1.106,0,1,0,0,2.211h6.634A2.211,2.211,0,0,0,370,204.493v-2.211a2.211,2.211,0,0,0-2.211-2.211h-6.634a1.106,1.106,0,1,0,0,2.211h6.634v2.211Zm0,0"
                    transform="translate(-310.258 -172.429)"
                    fill="currentColor"
                  />
                </g>
              </svg>